# xmcd
#
# Track frame offsets:
#	150
#	13085
#	27295
#	48780
#	58565
#	75100
#	88335
#	98120
#	107230
#	119031
#	137066
#	150676
#	167136
#	185621
#	202006
#	223866
#	234551
#	245761
#
# Disc length: 3505 seconds
#
# Revision: 6
# Processed by: cddbd v1.5.1PL0 Copyright (c) Steve Scherf et al.
# Submitted via: EasyCDDAExtractor 5.0.6
#
DISCID=fd0daf12
DTITLE=Stare Dobre Malzenstwo - Bieszczadzkie Anioly
DYEAR=2000
DGENRE=Ballad
TTITLE0=Tu asfalt sie konczy
TTITLE1=Najeli
TTITLE2=Nocna piesn zarowki
TTITLE3=Kolysanka z Ogrodowej
TTITLE4=Zbieg okolicznosci lagodzacych
TTITLE5=Przyjazd po latach
TTITLE6=List do Ogrodowej
TTITLE7=Oczekujacej
TTITLE8=Glupi Gienek
TTITLE9=Bieszczadzkie Anioly
TTITLE10=Krynica Zdroj
TTITLE11=Czarna suka
TTITLE12=Aniol zimowy
TTITLE13=Do ostatniej pestki...
TTITLE14=Anioly na poddaszu placza
TTITLE15=Bieszczadzki odjazd
TTITLE16=Odludzie
TTITLE17=Leluchow
EXTD=YEAR: 2000
EXTT0=
EXTT1=
EXTT2=
EXTT3=
EXTT4=
EXTT5=
EXTT6=
EXTT7=
EXTT8=
EXTT9=
EXTT10=
EXTT11=
EXTT12=
EXTT13=
EXTT14=
EXTT15=
EXTT16=
EXTT17=
PLAYORDER=
